<svg xmlns="http://www.w3.org/2000/svg">
    <symbol  id="search" viewBox="0 0 24 24">
         <path fill="black" d="M 9 2 C 5.1458514 2 2 5.1458514 2 9 C 2 12.854149 5.1458514 16 9 16 C 10.747998 16 12.345009 15.348024 13.574219 14.28125 L 14 14.707031 L 14 16 L 20 22 L 22 20 L 16 14 L 14.707031 14 L 14.28125 13.574219 C 15.348024 12.345009 16 10.747998 16 9 C 16 5.1458514 12.854149 2 9 2 z M 9 4 C 11.773268 4 14 6.2267316 14 9 C 14 11.773268 11.773268 14 9 14 C 6.2267316 14 4 11.773268 4 9 C 4 6.2267316 6.2267316 4 9 4 z"/>
    </symbol>
  <symbol id="collapse-open" viewBox="0 0 64 64">
      <path d="M56.0001 2H23.6201C23.0897 2 22.581 2.21071 22.2059 2.58579C21.8308 2.96086 21.6201 3.46957 21.6201 4V19.73C21.6201 20.2604 21.8308 20.7691 22.2059 21.1442C22.581 21.5193 23.0897 21.73 23.6201 21.73C24.1506 21.73 24.6593 21.5193 25.0343 21.1442C25.4094 20.7691 25.6201 20.2604 25.6201 19.73V6H54.0001V58H25.6201V44.27C25.6201 43.7396 25.4094 43.2309 25.0343 42.8558C24.6593 42.4807 24.1506 42.27 23.6201 42.27C23.0897 42.27 22.581 42.4807 22.2059 42.8558C21.8308 43.2309 21.6201 43.7396 21.6201 44.27V60C21.6201 60.5304 21.8308 61.0391 22.2059 61.4142C22.581 61.7893 23.0897 62 23.6201 62H56.0001C56.5305 62 57.0393 61.7893 57.4143 61.4142C57.7894 61.0391 58.0001 60.5304 58.0001 60V4C58.0001 3.46957 57.7894 2.96086 57.4143 2.58579C57.0393 2.21071 56.5305 2 56.0001 2Z" fill="black"/>
      <path d="M31.54 42.2402C31.5312 42.6451 31.6454 43.0431 31.8677 43.3816C32.09 43.7201 32.4098 43.9831 32.7848 44.1359C33.1598 44.2888 33.5723 44.3241 33.9679 44.2374C34.3634 44.1507 34.7233 43.9459 35 43.6502L45.19 33.4102C45.5625 33.0355 45.7716 32.5286 45.7716 32.0002C45.7716 31.4718 45.5625 30.9649 45.19 30.5902L35 20.3502C34.7806 20.1321 34.5136 19.9679 34.22 19.8704C33.9264 19.7729 33.6142 19.7449 33.308 19.7885C33.0017 19.8321 32.7097 19.9462 32.455 20.1217C32.2003 20.2973 31.9898 20.5295 31.84 20.8002C31.6666 21.1043 31.5801 21.4503 31.59 21.8002V30.0002H8C7.46957 30.0002 6.96086 30.2109 6.58579 30.586C6.21071 30.9611 6 31.4698 6 32.0002C6 32.5306 6.21071 33.0393 6.58579 33.4144C6.96086 33.7895 7.46957 34.0002 8 34.0002H31.54V42.2402Z" fill="black"/>
  </symbol>
  <symbol id="collapse-close" viewBox="0 0 64 64">
      <path d="M40.38 42.27C39.8496 42.27 39.3409 42.4807 38.9658 42.8558C38.5907 43.2309 38.38 43.7396 38.38 44.27V58H10V6H38.38V19.73C38.38 20.2604 38.5907 20.7691 38.9658 21.1442C39.3409 21.5193 39.8496 21.73 40.38 21.73C40.9104 21.73 41.4191 21.5193 41.7942 21.1442C42.1693 20.7691 42.38 20.2604 42.38 19.73V4C42.38 3.46957 42.1693 2.96086 41.7942 2.58579C41.4191 2.21071 40.9104 2 40.38 2H8C7.46957 2 6.96086 2.21071 6.58579 2.58579C6.21071 2.96086 6 3.46957 6 4V60C6 60.5304 6.21071 61.0391 6.58579 61.4142C6.96086 61.7893 7.46957 62 8 62H40.38C40.9104 62 41.4191 61.7893 41.7942 61.4142C42.1693 61.0391 42.38 60.5304 42.38 60V44.27C42.38 43.7396 42.1693 43.2309 41.7942 42.8558C41.4191 42.4807 40.9104 42.27 40.38 42.27Z" fill="black"/>
      <path d="M56.0001 30.0002H32.4601V21.7602C32.4749 21.6307 32.4749 21.4998 32.4601 21.3702C32.3854 21.0181 32.2171 20.6927 31.9729 20.4282C31.7287 20.1638 31.4176 19.9702 31.0726 19.8678C30.7275 19.7654 30.3612 19.758 30.0123 19.8465C29.6633 19.9349 29.3448 20.1158 29.0901 20.3702L18.8101 30.5902C18.4376 30.965 18.2285 31.4719 18.2285 32.0002C18.2285 32.5286 18.4376 33.0355 18.8101 33.4102L29.0501 43.6502C29.1408 43.7442 29.2414 43.828 29.3501 43.9002C29.651 44.101 30.0008 44.2164 30.3621 44.2341C30.7234 44.2519 31.0827 44.1713 31.4019 44.0009C31.721 43.8306 31.988 43.5769 32.1743 43.2668C32.3607 42.9568 32.4594 42.602 32.4601 42.2402V34.0002H56.0001C56.5305 34.0002 57.0392 33.7895 57.4143 33.4145C57.7894 33.0394 58.0001 32.5307 58.0001 32.0002C58.0001 31.4698 57.7894 30.9611 57.4143 30.586C57.0392 30.211 56.5305 30.0002 56.0001 30.0002Z" fill="black"/>
  </symbol>
  <symbol id='close' viewBox='0 0 24 24'>
    <line x1="18" y1="6" x2="6" y2="18" stroke="#C0C0C0"></line><line stroke="#C0C0C0" x1="6" y1="6" x2="18" y2="18"></line>
  </symbol>
  <symbol id="info" viewBox="0 0 24 24">
 <path d="M 12 2 C 6.4889971 2 2 6.4889971 2 12 C 2 17.511003 6.4889971 22 12 22 C 17.511003 22 22 17.511003 22 12 C 22 6.4889971 17.511003 2 12 2 z M 12 4 C 16.430123 4 20 7.5698774 20 12 C 20 16.430123 16.430123 20 12 20 C 7.5698774 20 4 16.430123 4 12 C 4 7.5698774 7.5698774 4 12 4 z M 11 7 L 11 9 L 13 9 L 13 7 L 11 7 z M 11 11 L 11 17 L 13 17 L 13 11 L 11 11 z" fill="blue"/>
  </symbol>
  <symbol id="sort-arrow" viewBox="0 0 322 511.21">
   <path fill="#c0c0c0" d="M295.27 211.54H26.71c-6.23-.02-12.48-2.18-17.54-6.58-11.12-9.69-12.29-26.57-2.61-37.69L144.3 9.16c.95-1.07 1.99-2.1 3.13-3.03 11.36-9.4 28.19-7.81 37.58 3.55l129.97 157.07a26.65 26.65 0 0 1 7.02 18.06c0 14.76-11.97 26.73-26.73 26.73zM26.71 299.68l268.56-.01c14.76 0 26.73 11.97 26.73 26.73 0 6.96-2.66 13.3-7.02 18.06L185.01 501.53c-9.39 11.36-26.22 12.95-37.58 3.55-1.14-.93-2.18-1.96-3.13-3.03L6.56 343.94c-9.68-11.12-8.51-28 2.61-37.69 5.06-4.4 11.31-6.56 17.54-6.57z"/>
  </symbol>
</svg>
